<?xml version="1.0" encoding="UTF-8"?>
<svg id="Layer_2" data-name="Layer 2" xmlns="http://www.w3.org/2000/svg" viewBox="0 0 278.95 320.35">
  <g id="Layer_1-2" data-name="Layer 1">
    <g>
      <path d="M148.82,271.79c-9.93-3.87-6.73-13.22-12.37-10.15-3.04,11.31-16.92,14.06-27.62,11.02-5.75-1.64-9.79-6.04-12.08-11.49-1.93-.53-3.93-.63-6.04-.38l-4.05,32.64c-.63,5.06-9.98,7.75-17.2,4.37l-2.38,15.15c-.49,3.12-2.94,5.68-5.99,6.55-9.09,2.57-19.81-.69-18.69-8.21l8.45-56.8c-4.96-1.85-9.63-4.22-11.76-9.22-2.64-6.21-2.75-14.47.71-20.46,3.13-5.41,7.92-9.34,12.04-13.78,1.97-2.13,4.6-2.84,7.38-3.55l3.87-44.86c-9.88,1.3-20.25-.41-28.32-6.46-9.92-7.44-15.79-18.42-16.86-30.62C.64,108.15-4.94,83.08,4.7,60.43,13.57,37.51,30.87,14.53,55.05,7.55c11.42-3.3,23.21-.68,32.15,6.94,3.79-2.56,7.36-4.6,11.6-6.39,29.18-12.29,63.52-10.86,90.79,6.13,2.21-2.43,4.56-4.1,7.45-5.38,14.25-6.29,29.9-3.74,42.79,4.84,11.27,7.51,20.04,17.63,26.79,29.36,4.61,8.01,8.43,15.92,10.64,24.91,5.11,20.77-1.67,42.28-16.52,57.63-3.27,23.91-22.19,41.21-46.88,36.61l3.52,44.94c3.99.52,7.15,2.28,9.57,5.4,3.57,4.3,7.68,8.24,9.87,13.58,2.31,5.62,2.31,12.62-.09,18.15-1.97,4.54-6.34,6.71-10.33,9.06l7.86,57.43c.52,3.8-2.15,6.93-5.54,8.18-7.6,2.8-18.06,1.14-19.07-5.26l-2.49-15.71c-7.1,2.99-16.53,1.31-17.41-5.82l-3.89-31.87-5.62.43c-2.46,4.1-5.31,8.15-9.71,10.39-6.73,3.42-14.81,3.38-21.71.69Z" fill="#3c3f53"/>
      <path d="M189.75,154.37c-26.93,9.78-57.78,10.8-85.76,4.9-21.3-4.49-38.8-13.05-47.08-33.93s-4.63-44.46,5.29-64.16c.6-1.19.45-2.37-.37-3-.57-.45-2.28-.71-2.85.39-11.87,22.86-15.28,51.48-2.94,74.51,4.47,8.33,10.7,14.86,19.11,19.87-6.03,5.2-13.8,6.71-21.45,6.03-18.32-1.61-30.8-17.37-31.62-35.34-6.16-5.32-10.15-11.78-13.33-19.01-6.37-14.49-5.8-29.84.38-44.33s14.59-27.82,26.92-37.88c14.1-11.5,32.2-17.65,47.69-5.54l-8.37,7.48c-.81.72-.71,1.9-.18,2.6.4.52,1.82,1.06,2.58.33,8.53-8.16,18.17-14.37,29.54-18.08,31.21-10.18,67.52-5.43,91.53,17.82.98.95,2.18.33,2.66-.28.66-.82.78-2.04-.13-2.82l-8.53-7.4c5.58-4.99,13.07-7.28,20.86-7.1,19.04.42,35.58,14.37,45.69,29.94,4.67,7.2,8.39,14.44,11.47,22.41,4.96,12.81,5.11,26.16.42,39.09-3.12,8.58-7.53,16.23-14.4,22.51-1.21,9.79-4.88,18.76-11.85,25.9-9.5,9.72-24.11,12.34-36.61,7.2-2.23-.92-3.85-2.44-5.4-4.09,12.49-7.87,21.1-19.72,24.57-33.8,1.95-7.91,2.82-15.56,2.03-23.7-1.25-12.96-4.8-25.2-10.99-36.52-.52-.94-2.07-.73-2.63-.34-.88.61-1.09,1.71-.5,2.82,7.85,14.78,11.46,31.23,9.82,47.79-2.13,21.36-15.54,38.42-35.57,45.7Z" fill="#dee3eb"/>
      <path d="M110.25,200.29c.28-.07.5-.14.51-.23.31-3.44.05-3.71-3.08-4.37-9.3-7.92-3.8-21.75-7.49-22.59-3.44-.78-3.38,13.18.63,20.77-9.2,1.33-16.93,7.42-20.99,16.36-8.78-16.57,0-37.01,11.94-49.99,8.6,2.8,16.7,4.25,25.52,5.12,2.71,3.04,6.07,5.01,10.03,6.12l6.8,2.09.07,39.73-14.89-.61c-.06-9.41-7.94-8.82-9.04-12.4Z" fill="#53556f"/>
      <path d="M169.94,196.05c-1.89.59-2.22,1.08-2.41,3.03l-1.68,3.63c-4.56,1.81-8.07,5.04-7.5,10l-14.35.19-.1-37.6c-.02-1.53.93-2.45,2.33-2.66,5.98-.85,11.22-3.23,15.7-7.26,8.17-.95,15.67-2.81,23.79-5.22,7.72,7.93,13.39,17.69,15.47,28.61,1.49,7.58.73,14.83-3.29,21.68-3.98-8.65-11.99-14.39-21.16-16.49,4.09-7.59,4.5-21.51,1.12-20.88s.4,7.69-3.97,17.56c-.93,2.09-2.56,3.69-3.94,5.42Z" fill="#53556f"/>
      <path d="M126.34,267.93c-7.34,3.46-19.22,2.67-23.93-4.99-4.9-7.96-7.99-16.82-9.32-25.96-4.2-2.87-6.11-7.36-6.21-12.48,3.5,4.25,7.65,7.05,13.07,7.07,3.37.01,6.28-1.15,8.13-4.08,5.67,1.15,10.58-2.78,10.75-8.79,4.45,1.17,7.72,3.66,10.96,6.57,1.16,1.04,3.2.49,4.81-.18l2.02,8.27c.26,1.07-1.75,2.6-2.78,2.58-1.21-.02-1.96-.21-2.53.27-.86.73-1.29,1.63-1.12,2.79l2.48,16.58c.76,5.07-1.5,10.05-6.35,12.34Z" fill="#dee3eb"/>
      <path d="M175.61,260.31c-3.76,6.5-9.78,9.73-17.12,9.4-4.22-.19-8.68-.85-11.76-3.99-2.81-2.85-3.76-7.26-2.98-11.15l2.98-14.84c.22-1.08.12-2.1-.29-2.72-.68-1.01-2.01-1.06-3.59-.84-.05-4.62,2.89-7.94,6.02-10.83,2.94-2.71,5.66-5.09,9.73-6.55,0,6.07,5.29,9.56,10.67,9,1.89,1.94,4.04,3.69,7.08,3.92,5.7.45,10.7-2,14.64-6.86-.34,5.2-2.95,9.55-7.27,12.41-1.42,8.15-3.87,15.74-8.1,23.04Z" fill="#dee3eb"/>
      <path d="M230.05,310.94c-.05,4.89-7.4,5.62-13.12,4.57-1.87-.35-2.96-1.71-3.49-3.52l-8.06-53.41,16.8-3.61,7.88,55.98Z" fill="#c7a685"/>
      <path d="M63.23,311.18c-.95,5.27-7.43,5.59-13.26,4.23-2.6-.6-3.89-3.03-3.13-5.6l8.27-54.01c5.25,1.62,10.6,2.45,16.24,3.14l-8.12,52.24Z" fill="#c8a787"/>
      <path d="M64.95,236.17c-6.15-.47-19.04-3.43-22.05-7.9,3.24-6.23,12.35-17.14,17.51-17.24l15.08-.28c1.91,3.76,3.89,7.2,7.22,10.17-.64,6.27,1.17,11.95,5.43,17.04l-23.19-1.79Z" fill="#c6a584"/>
      <path d="M227.96,231.76c-5.58,2.49-11.13,3.55-16.93,4.07l-21.74,1.94c4.64-4.49,6.32-10.2,5.89-16.44,2.92-3.25,5.21-6.46,7.27-10.52l13.53-.06c5.87-.03,14,10.49,17.14,16.92-.97,1.85-2.88,3.23-5.15,4.09Z" fill="#c5a382"/>
      <path d="M94.45,256.45l-14.62-.88c-11.6-.69-33.49-3.07-37.28-12.99-1.21-3.15-.8-6.29-.75-9.49,5.17,3.27,10.4,4.95,16.18,5.98,10.48,1.87,20.79,2.44,31.77,3.06l4.7,14.32Z" fill="#c5a382"/>
      <path d="M207.84,254.15l-25.41,2.13,4.7-14.38,31.43-3.14c5.43-1.3,10.47-2.7,15.23-5.78,2.34,15.49-12.1,18.51-25.94,21.17Z" fill="#c6a585"/>
      <path d="M83.48,164.37c-9.02,12.36-14.14,28.48-9.24,42.83l-10.51-.2,3.7-45.39c4.35-1.23,7.94-3.5,11.51-6.4l4.72,2.03-.19,7.14Z" fill="#c29f7f"/>
      <path d="M204.03,206.84c5.26-14.3-1-30.49-9.51-42.86-1.03-1.87-.11-4.83-.25-6.86l5.11-2.5c2.72,3.21,6.09,5.24,10.24,6.32l3.32,45.68c-2.96.53-5.51.48-8.91.21Z" fill="#c29f7d"/>
      <path d="M206.39,293.41c-4.01,3.13-11.85,1.81-12.22-1.1l-4.13-32.33,11.06-.88,5.29,34.3Z" fill="#b08f71"/>
      <path d="M82.9,290.42c-.24,2-.86,3.55-2.67,4.13-3.28,1.04-6.92.69-10.04-1.23l5.57-33.86,10.83.79-3.68,30.17Z" fill="#b49374"/>
      <path d="M173.02,225.38c-.42-1.44,2.15-2.65,1.12-4.06-.51-.71-1.38-1.16-2.46-.77s-1.54,2.08-2.44,2.79c-1.95,1.53-4.97.02-5.99-1.41-3.48-4.88,3.67-6.98-1.04-9.81.27-3.89,4.65-6.83,8.87-6.17,11.12,1.74,19.94,13.7,14.25,19.12-4.3,4.09-11.43,3.35-12.31.32Z" fill="#dee3eb"/>
      <path d="M107.49,221.51c-.68-1.42-1.95-1.57-2.86-1.11-2.43,1.24.34,3.8-.02,5.02-.63,2.16-5.44,3.12-10.22.82-3.4-1.64-4.8-5.16-3.23-8.81,2.57-5.96,8.17-10.29,14.63-11.55,3.78-.74,7.53.93,9.26,4.19,1.38,2.62-3.29,3.48-1.28,5.95,1.35,1.66,1.5,3.8.48,5.43-1.07,1.73-3.37,2.85-5.48,1.93-.63-.27-.97-1.21-1.29-1.88Z" fill="#dee3eb"/>
      <path d="M140.1,219.67c0,.89-.11,1.41-.25,1.62s-.88.27-1.12.19c-.6-.2-.67-.53-.68-1.49l-.09-48.02-4.31-5.36h10.28c-1.18,2.47-3.74,4.24-3.74,6.99l-.08,46.07Z" fill="#f1f2f5"/>
      <path d="M139.62,257.06c-1.02.27-1.7.17-2.63,0-.07-4.83-1.13-9.17-2.11-14.21l7.22.07c-1.06,4.87-2.34,9.02-2.48,14.15Z" fill="#c2a07f"/>
      <path d="M191.19,219.12c-1.78-9.21-11.3-16.51-20.26-17.11-.09-1.03.77-1.63,1.43-1.53,9.57,1.38,17.36,7.63,20.41,16.8.2.59-.86,1.71-1.57,1.85Z" fill="#f3f3f5"/>
      <path d="M106.27,201.59c-16.43,2.18-20.18,17.48-19.7,17.31-3.74,1.28,1.31-15.81,17.37-18.55,1.19-.2,2.07.26,2.33,1.23Z" fill="#f2f3f4"/>
      <path d="M84.08,214.14l-.22,1.6c-.03.2-.42.13-.57,0-3.5-3.06,9.23-19.64,21.16-17.7-8.99,2.65-16.91,6.9-20.37,16.1Z" fill="#f0f0f3"/>
      <path d="M194.25,215.52c-3.52-9.13-11.44-14.81-20.73-16.71-.08-.43.63-1.31,1.12-1.22,9.08,1.65,16.65,7.43,20.46,15.74.38.84.59,1.87-.84,2.18Z" fill="#f2f3f4"/>
      <path d="M133.61,216.65c.98-.01,1.04,1.07.78,1.4-.31.37-7.11,1.16-9.32-1.29l8.54-.11Z" fill="#d9dbdf"/>
      <path d="M153.38,216.76c-2.87,2.7-6.62,1.1-8.32,1.68-.52.18-1.35-.55-1.04-1.51l9.36-.17Z" fill="#dcdee3"/>
      <path d="M110.25,200.29c-.43-1.39-1.64-3.68-2.58-4.6,1.45-.8,2.67-.73,3.37-.13,1.27,1.09.69,2.41.43,3.98l-.24,1.47c-.04.22-.67-.3-.98-.72Z" fill="#e9eaec"/>
      <path d="M148.87,219.89c-1.14,2.22-4.21,2.22-5.35.23,1.76-.56,3.43-.44,5.35-.23Z" fill="#cacdd5"/>
      <path d="M134.45,220.08c.41,1.33-1.3,1.83-2.55,1.29-.69-.3-1.74-.53-2.02-1.79,1.33.2,3.24-.28,4.57.49Z" fill="#d7d9df"/>
      <path d="M169.94,196.05l-2.41,3.03c-1-.78-.88-1.87-.14-2.61s1.83-1.47,2.55-.41Z" fill="#e4e4e8"/>
      <path d="M171.38,105.49l.45-1.32c4.84-1.73,7.06-7.05,6.68-11.92l1.04-.94c5.18-5.01,12.63-7.18,19.95-5.24,9.62,2.55,16.86,10.9,17.79,20.78.67,7.16-1.9,13.32-7.24,17.81-8.06,6.79-19.08,8.42-28.88,4.45-2.03-.82-3.46-2.2-5.05-3.58-5.36-4.66-7.32-11.79-4.81-18.53.18-.47.26-1.02.06-1.51Z" fill="#feb9ca"/>
      <path d="M96.62,90.55c.47-.11.86,0,1.15.36-.56,5.88.59,11.87,7.12,13.42l.59,1.26c-.71.02-1.12.07-1.2.4,2.1,4.56,2.26,10.07.09,14.54-3.4,7.02-10.44,10.65-18.19,10.75-10.64.14-20.71-5.35-25.1-15.22-4.93-11.09,2.83-26.93,16.22-30.02,7.1-1.64,13.93.11,19.33,4.52Z" fill="#feb9ca"/>
      <path d="M105.47,105.59c-4.72-.59-8.2-4.35-8.82-9.05l-.03-5.98c-.03-5.73,4.8-12.79,12.2-12.63,3.71.08,7.28,2.31,9.14,5.91,2.21,4.27,2.43,9.22.76,13.76-2.02,5.48-7.44,8.73-13.25,8Z" fill="#3c3f53"/>
      <path d="M179.55,91.32c.91,5.95-2.24,12.81-8.17,14.17s-11.41-1.87-13.67-7.52c-2.09-5.22-1.57-11.31,1.64-16.04,2.17-3.2,5.92-4.37,9.57-4.05,6.59.57,9.6,6.66,10.63,13.43Z" fill="#3c3f53"/>
      <path d="M31.06,93.46c.1,1.38-1.24,1.94-1.97,1.91-.98-.04-2.05-.86-2.12-2.22-.53-10.43,1.99-20.41,6.4-29.8,3.36-7.17,7.38-13.63,13.22-18.93,5.44-4.94,11.89-7.36,11.97-3.23.03,1.54-1.16,1.76-2.67,2.19-3.38.95-5.99,3.46-8.37,5.99-10,10.62-17.56,28.94-16.45,44.09Z" fill="#3c3f53"/>
      <path d="M247.08,92.85c1.2-14.07-6.98-33.64-16.35-43.68-6.89-7.39-11.57-5.33-10.92-8.53.74-3.61,8.29-.11,13.25,5.03,16.6,17.22,21.89,49.91,15.93,49.69-1.08-.04-2.05-.82-1.91-2.52Z" fill="#3c3f53"/>
      <path d="M140.47,83.76c-.69-1.22-4.23-.97-5.21-.03l-3.76,11.7-.37,7.53c-.07,1.41-1.07,2.18-2.14,2.16-1.53-.02-1.92-1.18-1.96-2.71-.13-4.59.29-8.66,2.08-12.9,1.12-2.67,1.36-6.33,3.53-8.51,2.79-2.8,7.97-1.94,11.15-.2,2.07,5.17,4.07,9.8,5.07,15.15l.22,7.94c.03,1.12-1.62,1.36-2.27,1.18-3.06-.84-1.08-5.3-1.93-8.51-1.14-4.32-2.03-8.6-4.43-12.82Z" fill="#3c3f53"/>
      <path d="M174.95,62.4c-.24,3.58-8.26,4.4-14.34,1.79-1.11-.48-1.34-1.83-1.17-2.82.6-3.59,8.55-4.87,14.14-1.64,1,.58,1.42,1.84,1.37,2.67Z" fill="#3c3f53"/>
      <path d="M116.93,61.54c.62,3.46-7.54,5.74-14.2,3.09-1.03-.41-1.23-1.85-1.09-2.67.83-4.94,14.35-5.7,15.3-.42Z" fill="#3c3f53"/>
      <path d="M148.52,116.17c2.69,5.45-22.61,5.85-20.82.43.44-1.32,1.91-1.66,3.37-1.08,4.41,1.74,9.75,1.72,14.18,0,1.43-.55,2.58-.73,3.26.64Z" fill="#3c3f53"/>
      <path d="M129.36,176.23c1.22-.46,2.39.55,2.64,1.26.46,1.29-.29,2.54-1.4,2.91-1.02.34-2.1-.03-2.66-1.2-.41-.87-.21-2.35,1.42-2.97Z" fill="#efeff1"/>
      <path d="M129.49,187c1.17-.34,2.22.42,2.62,1.34.48,1.09-.15,2.4-1.51,2.93-.86.34-2.15-.3-2.72-1.61-.38-.87.2-2.25,1.61-2.66Z" fill="#eff0f2"/>
      <path d="M129.28,197.39c1.37-.64,2.47.37,2.75,1.27.34,1.09-.15,2.06-1.2,2.62-.91.48-1.93-.16-2.42-.83-.75-1.03-.47-2.43.88-3.06Z" fill="#ededf1"/>
      <path d="M129.26,207.09c1.33-.71,2.27.32,2.6.95.64,1.25.05,2.37-.76,2.8-1.09.58-2.13.18-2.69-.57-.65-.88-.52-2.45.86-3.18Z" fill="#eeeff1"/>
      <path d="M168.5,187.92c-1.64,4.45-7.58,4.61-10.69,1.96-1.08-.92-1.3-2-.7-3.06,1.73-3.04,5.11,2.15,6.63-.11.8-1.18-1.17-2.18-2.12-2.4-3.54-.82-5.78-4.01-4.27-7.38.87-1.94,3.18-3.01,5.01-3.1,1.98-.09,4.34.76,5.4,2.67.55.99-.44,2.1-1.18,2.5-1.51.81-2.78-1.59-4.76-.81-.32.13-.53.87-.38,1.29.41,1.1,9.31,2.34,7.06,8.43Z" fill="#f8f8f8"/>
      <path d="M106.52,89.75c-2.45.65-3.97-1.18-3.9-3.13s1.79-3.79,4.01-2.97c1.31.48,1.78,1.91,1.82,2.99s-.31,2.68-1.94,3.12Z" fill="#f1f1f2"/>
      <path d="M166.73,88.47c-.95,1.61-2.82,1.51-3.93.75-1.31-.9-1.74-2.56-1.04-4.03.63-1.32,2.34-2.38,3.97-1.46,1.49.84,1.98,3.06,1,4.74Z" fill="#f2f2f3"/>
    </g>
  </g>
</svg>